<svg id="Layer_1" data-name="Layer 1" xmlns="http://www.w3.org/2000/svg" viewBox="0 0 1300 900"><path d="M523.26,409.52h12.45V432.2c3.2-4.18,8.71-6.85,15.29-6.85,11.12,0,19.21,7.47,19.21,21.07v28.9H557.76V448.11c0-7.91-4.36-12.18-10.94-12.18-6.75,0-11.11,4.27-11.11,12.18v27.21H523.26Z"/><path d="M623.19,475.32H610.66v-6.23A18.17,18.17,0,0,1,596,475.94c-11.47,0-19.74-7.47-19.74-21v-28.9H588.7v27.12c0,7.91,4.35,12.18,10.93,12.18,6.76,0,11-4.27,11-12.18V426.06h12.53Z"/><path d="M659.73,425.26c12.63,0,22.49,9.87,22.49,25.25s-9.86,25.61-22.49,25.61c-7.73,0-13.25-3.56-16.27-7.83v7H631v-65.8h12.45v23.74C646.48,428.73,652.26,425.26,659.73,425.26Zm-3.29,10.94c-6.67,0-13,5.15-13,14.49s6.31,14.49,13,14.49,13.07-5.33,13.07-14.67S663.2,436.2,656.44,436.2Z"/><path d="M755.75,448.11c0-7.82-4.36-11.91-10.94-11.91s-11,4.09-11,11.91v27.21H721.34V448.11c0-7.82-4.36-11.91-10.94-11.91-6.75,0-11.11,4.09-11.11,11.91v27.21H686.84V426.06h12.45v6a17.94,17.94,0,0,1,14.49-6.67c7.65,0,14,3.29,17.34,9.42A19.5,19.5,0,0,1,748,425.35c11.83,0,20.18,7.47,20.18,21.07v28.9H755.75Z"/><path d="M774.23,412.9a7.66,7.66,0,1,1,7.65,7.29A7.3,7.3,0,0,1,774.23,412.9Zm1.34,13.16H788v49.26H775.57Z"/><path d="M830.33,448.11c0-7.91-4.35-12.18-10.93-12.18-6.76,0-11.12,4.27-11.12,12.18v27.21H795.84V426.06h12.44v6.14a18.4,18.4,0,0,1,14.85-6.85c11.47,0,19.65,7.47,19.65,21.07v28.9H830.33Z"/><path d="M869.54,425.26c6.49,0,12.71,3,16.09,7.65V409.52h12.63v65.8H885.63V468c-2.93,4.53-8.45,8.09-16.18,8.09-12.54,0-22.5-10.23-22.5-25.61S856.91,425.26,869.54,425.26Zm3.11,10.94c-6.67,0-13,5-13,14.31s6.31,14.67,13,14.67c6.85,0,13.07-5.16,13.07-14.49S879.5,436.2,872.65,436.2Z"/><rect x="436.89" y="396.24" width="20.3" height="44.94"/><rect x="401.74" y="427.31" width="20.3" height="44.94"/><rect x="472.8" y="427.31" width="20.3" height="44.94"/><rect x="436.89" y="458.82" width="20.3" height="44.94"/></svg>